<svg width="436" height="84" viewBox="0 0 436 84" fill="none" xmlns="http://www.w3.org/2000/svg">
<path d="M56 53C52 52.6 50.6667 26.5 50.5 13.5L46 53C51 53.1667 60 53.4 56 53Z" fill="#CEBF55"/>
<path d="M122.5 53L118 13.5L112.5 53H122.5Z" fill="#CEBF55"/>
<path d="M186 53L184 7L179 53H186Z" fill="#CEBF55"/>
<path d="M218 53V8.5L214 53H218Z" fill="#CEBF55"/>
<path d="M259 53L252.5 11V51.5L259 53Z" fill="#CEBF55"/>
<path d="M299.5 13L296.5 11V51.5H301L299.5 13Z" fill="#CEBF55"/>
<path d="M340.5 53L332.5 11L334.5 51.5L340.5 53Z" fill="#CEBF55"/>
<path d="M380.5 51.5L374 11L376 51.5H380.5Z" fill="#CEBF55"/>
<path d="M422.5 13L417 11C417 13 416.4 18.6 414 25C411.6 31.4 415 45 417 51H423.5C423.167 49.1667 422 44.4 420 40C418 35.6 420.833 20.1667 422.5 13Z" fill="#CEBF55"/>
<path d="M434.5 77.5L426.5 61.5L13.5 67.5V79.5L16.5 83.5L434.5 79.5V77.5Z" fill="#CEBF55"/>
<path d="M18.1917 11.4897C18.7568 10.7598 18.7679 10.9383 18.6362 11.8309C18.4917 12.8103 18.1695 13.7555 18.047 14.7356C17.91 15.8322 17.7796 16.9282 17.6232 18.0229C17.3735 19.7707 16.7077 21.4151 16.4551 23.1605C16.0364 26.0535 15.4025 28.9022 15.1733 31.8127C14.9901 34.139 14.2881 36.4228 14.0879 38.7593C13.9268 40.639 13.4266 42.4949 13.3436 44.3621C13.2746 45.9151 12.9087 47.3518 12.4236 48.8071C12.1191 49.7204 12.0021 50.6618 11.762 51.5878C11.6458 52.0361 11.4993 53.5567 11.1211 52.6112" stroke="#ACA04E" stroke-width="2.25709" stroke-linecap="round" stroke-linejoin="round"/>
<path d="M18.7539 10.5593C23.0995 10.5593 27.5739 10.2395 31.9028 10.4559C34.1601 10.5688 36.4694 10.3014 38.7254 10.1458C40.0814 10.0523 41.306 10.1687 42.6329 10.1871C44.8769 10.2183 47.0556 10.5593 49.321 10.5593C50.2104 10.5593 49.1445 17.6345 49.0006 18.4776C48.7524 19.9312 48.2151 21.4617 48.1529 22.9226C48.073 24.8016 47.29 26.5989 47.2226 28.4427C47.0974 31.8649 46.6369 35.3465 46.1889 38.7385C45.8016 41.6707 45.0805 44.5431 44.5763 47.4425C44.431 48.2775 44.2455 49.1143 44.2455 49.9647C44.2455 51.8216 44.7016 48.7909 44.8037 48.3315" stroke="#ACA04E" stroke-width="2.25709" stroke-linecap="round" stroke-linejoin="round"/>
<path d="M49.6406 12.978C50.5395 20.3936 47.9321 27.655 47.7799 35.0376C47.6971 39.0519 47.1155 43.1266 46.8392 47.1322C46.7511 48.4102 46.2913 49.6525 46.2913 50.9363C46.2913 51.4343 45.8995 53.6102 46.2913 52.2388" stroke="#ACA04E" stroke-width="2.25709" stroke-linecap="round" stroke-linejoin="round"/>
<path d="M86.8613 10.9314C86.3669 13.3159 85.9484 15.5305 85.7862 17.9814C85.6115 20.6207 85.7005 23.2806 85.5381 25.9204C85.4658 27.0951 85.0739 28.1932 84.9179 29.3523C84.721 30.815 84.8198 32.2918 84.5871 33.756C84.3296 35.3756 84.2759 36.9735 83.8945 38.5628C83.5956 39.8081 83.5758 40.9924 83.5017 42.2532C83.399 43.999 83.0105 45.7115 82.6643 47.4218C82.3346 49.0511 82.0234 50.7737 82.0234 52.425" stroke="#ACA04E" stroke-width="2.25709" stroke-linecap="round" stroke-linejoin="round"/>
<path d="M85.9297 10.7451C87.4281 10.9416 88.9076 10.9312 90.416 10.9312C92.1654 10.9312 93.8884 11.2827 95.626 11.2827C98.6223 11.2827 101.558 10.7624 104.578 10.9725C106.758 11.1242 109.001 11.3033 111.184 11.3033C111.988 11.3033 112.763 11.2941 113.561 11.3964C114.522 11.5196 114.955 11.7339 114.584 10.7451" stroke="#ACA04E" stroke-width="2.25709" stroke-linecap="round" stroke-linejoin="round"/>
<path d="M114.768 12.6057C114.31 20.7979 113.632 28.9718 112.907 37.1256C112.466 42.0907 110.488 47.6048 110.488 52.2386" stroke="#ACA04E" stroke-width="2.25709" stroke-linecap="round" stroke-linejoin="round"/>
<path d="M117.37 11.8618C116.531 13.0361 116.635 13.91 116.626 15.3144C116.606 18.2419 116.668 21.3154 116.357 24.2251C116.214 25.5673 115.941 26.8931 115.799 28.236C115.664 29.508 115.765 30.7914 115.613 32.0607C115.385 33.9652 115.18 36.0429 114.765 37.9116C114.151 40.6732 114.057 43.4826 113.463 46.2434C113.211 47.4149 112.948 48.5948 112.76 49.7787C112.671 50.3355 112.358 51.9448 112.532 50.3783" stroke="#ACA04E" stroke-width="2.25709" stroke-linecap="round" stroke-linejoin="round"/>
<path d="M117.56 12.0479C117.03 13.1327 117.493 13.6635 117.55 14.7355C117.663 16.8834 117.14 19.0064 117.043 21.1446C116.87 24.9762 116.708 28.7612 116.382 32.5879C116.202 34.6938 116.072 36.8214 116.072 38.9349C116.072 41.937 115.393 44.7296 115.141 47.6906C115.093 48.2532 114.542 52.0325 114.211 51.8668" stroke="#ACA04E" stroke-width="2.25709" stroke-linecap="round" stroke-linejoin="round"/>
<path d="M147.331 3.48833C147.377 1.66094 147.237 3.74399 147.063 4.41868C146.557 6.37966 146.399 8.34409 145.957 10.3109C145.501 12.3344 145.438 14.4105 145.274 16.4615C144.87 21.5111 143.665 26.6036 142.752 31.5745C141.92 36.1042 141.484 40.6877 140.488 45.168C140.189 46.5154 140.212 47.9807 139.847 49.3029C139.688 49.8795 139.633 50.4589 139.506 51.0292C139.413 51.4488 139.134 53.2448 139.33 51.8665" stroke="#ACA04E" stroke-width="2.25709" stroke-linecap="round" stroke-linejoin="round"/>
<path d="M149.191 2C151.129 2.55825 153.016 2.85313 154.918 3.55058C156.243 4.03651 157.834 3.49331 159.219 3.87104C161.161 4.40074 162.986 4.35991 164.997 4.42925C166.337 4.47544 167.579 4.79105 168.935 4.79105C170.062 4.79105 171.23 4.72523 172.347 4.90476C173.11 5.02745 173.745 5.33308 174.538 5.34926C175.974 5.37856 176.956 5.49823 178.301 5.82477C179.988 6.23438 181.994 5.63162 183.614 6.27961" stroke="#ACA04E" stroke-width="2.25709" stroke-linecap="round" stroke-linejoin="round"/>
<path d="M183.797 7.20972C183.484 10.2271 182.866 13.2563 182.866 16.2961C182.866 18.643 182.122 20.8811 182.122 23.2221C182.122 24.3071 181.807 25.3089 181.76 26.3852C181.709 27.5529 181.713 28.5971 181.46 29.7448C180.77 32.8833 180.509 36.1036 179.992 39.2758C179.871 40.021 179.994 40.7963 179.848 41.5293C179.658 42.4801 179.364 43.4933 179.331 44.465C179.294 45.5337 179.425 46.577 178.959 47.5869C178.549 48.4739 178.249 49.5337 178.214 50.5226C178.196 51.0688 178.082 52.1944 177.656 52.0525" stroke="#ACA04E" stroke-width="2.25709" stroke-linecap="round" stroke-linejoin="round"/>
<path d="M182.873 3.8606C182.773 4.32016 182.278 5.94361 182.314 5.90736" stroke="#ACA04E" stroke-width="2.25709" stroke-linecap="round" stroke-linejoin="round"/>
<path d="M183.43 3.67452C185.025 3.2418 185.967 3.48845 187.523 3.48845" stroke="#ACA04E" stroke-width="2.25709" stroke-linecap="round" stroke-linejoin="round"/>
<path d="M187.521 3.6748C185.582 4.00484 187.599 3.83583 188.369 3.98492C190.361 4.37106 192.313 5.00636 194.333 5.24606C198.412 5.73004 202.496 6.22739 206.562 6.69327C209.479 7.02747 212.49 7.21013 215.421 7.21013C215.859 7.21013 218.72 7.36488 217.85 7.58227" stroke="#ACA04E" stroke-width="2.25709" stroke-linecap="round" stroke-linejoin="round"/>
<path d="M218.032 7.9541C217.438 11.5938 217.202 15.2732 216.771 18.9322C216.398 22.1059 215.935 25.2597 215.789 28.4631C215.642 31.6974 214.937 34.8964 214.642 38.1181C214.53 39.3347 214.209 40.4998 213.98 41.6948C213.821 42.525 213.977 43.3958 213.846 44.2377C213.689 45.2382 213.471 46.2697 213.391 47.2769C213.328 48.0675 213.496 48.8787 213.194 49.6337C212.945 50.2564 212.822 51.0801 212.822 51.7529C212.822 52.2268 212.345 53.1082 213.008 52.6109" stroke="#ACA04E" stroke-width="2.25709" stroke-linecap="round" stroke-linejoin="round"/>
<path d="M186.969 2.93018C190.086 3.56788 193.369 4.23906 196.541 4.56346C198.818 4.7963 201.157 4.60416 203.446 4.74953C206.073 4.91633 208.726 4.84239 211.344 5.12166C211.823 5.17281 214.049 5.1344 212.646 5.53515" stroke="#ACA04E" stroke-width="2.25709" stroke-linecap="round" stroke-linejoin="round"/>
<path d="M219.527 11.6756C219.587 8.7499 221.443 10.001 223.393 10.001C227.824 10.001 232.276 10.001 236.728 10.001C239.504 10.001 242.258 10.187 245.019 10.187C246.194 10.187 247.369 10.187 248.544 10.187C249 10.187 250.743 9.91283 250.973 10.3731" stroke="#ACA04E" stroke-width="2.25709" stroke-linecap="round" stroke-linejoin="round"/>
<path d="M251.719 11.4895C252.363 14.362 252.249 17.2516 252.422 20.1728C252.599 23.1572 252.463 26.1766 252.463 29.1661C252.463 31.3232 252.463 33.4802 252.463 35.6372C252.463 37.0673 252.224 38.4717 252.287 39.9065C252.403 42.506 252.463 45.0857 252.463 47.6904C252.463 48.3175 252.463 48.9447 252.463 49.5718C252.463 50.5359 252.813 51.2591 251.719 51.1224" stroke="#ACA04E" stroke-width="2.25709" stroke-linecap="round" stroke-linejoin="round"/>
<path d="M219.527 12.6057C219.527 16.2492 219.559 19.877 219.527 23.5218C219.486 28.1319 218.969 32.7416 218.969 37.353C218.969 40.3529 219.155 43.3238 219.155 46.305C219.155 47.449 219.155 48.593 219.155 49.737C219.155 50.3368 219.313 51.9267 218.969 50.3779" stroke="#ACA04E" stroke-width="2.25709" stroke-linecap="round" stroke-linejoin="round"/>
<path d="M240.739 12.978C239.834 12.0732 239.277 11.6701 237.979 11.8926C236.761 12.1013 235.066 12.597 233.916 13.1124C232.781 13.6213 231.917 14.4107 230.939 15.1281C229.92 15.8751 228.462 16.8718 227.827 17.9916C226.057 21.1157 226.039 24.4165 226.039 27.9153C226.039 30.8271 226.415 33.3426 227.435 36.061C227.713 36.8043 227.709 37.4571 228.127 38.1388C228.647 38.9851 229.097 39.7971 229.657 40.599C230.76 42.1789 232.886 44.1726 234.826 44.7546C236.456 45.2437 237.814 45.1577 239.291 44.155C240.709 43.1929 242.948 41.9222 243.344 40.1442" stroke="#ACA04E" stroke-width="2.25709" stroke-linecap="round" stroke-linejoin="round"/>
<path d="M230.132 40.7024C230.132 41.8982 230.365 43.8295 229.822 44.9613C229.205 46.2453 228.551 46.733 227.444 47.5766C225.355 49.1682 222.334 49.9805 220.828 52.2387" stroke="#ACA04E" stroke-width="2.25709" stroke-linecap="round" stroke-linejoin="round"/>
<path d="M263.066 10.0009C263.722 9.61727 264.265 9.52156 264.927 9.25659" stroke="#ACA04E" stroke-width="2.25709" stroke-linecap="round" stroke-linejoin="round"/>
<path d="M263.063 10.187C263.063 14.5141 262.691 18.8608 262.691 23.1912C262.691 27.6638 262.691 32.1364 262.691 36.6089C262.691 39.6706 262.505 42.7352 262.505 45.8091C262.505 46.4474 262.532 47.0936 262.505 47.7318C262.475 48.4255 262.133 49.0508 262.133 49.7475C262.133 50.5159 262.133 52.8211 262.133 52.0527" stroke="#ACA04E" stroke-width="2.25709" stroke-linecap="round" stroke-linejoin="round"/>
<path d="M265.48 9.25659C267.427 9.65597 269.327 9.41532 271.269 9.67008C272.507 9.83234 273.691 10.3313 274.97 10.4557C278.271 10.7766 281.641 10.8744 284.956 11.0759C287.393 11.2242 289.682 11.687 292.181 11.3964C293.417 11.2527 294.8 11.1905 295.996 11.4894" stroke="#ACA04E" stroke-width="2.25709" stroke-linecap="round" stroke-linejoin="round"/>
<path d="M296.559 11.1172C296.328 12.7094 296.456 14.3094 296.27 15.9033C296.11 17.277 296.001 18.5771 296.001 19.9658C296.001 22.2331 296.001 24.5004 296.001 26.7677C296.001 31.0734 295.771 35.5163 296.28 39.7926C296.586 42.3579 296.559 45.2106 296.559 47.773C296.559 48.4931 296.559 49.2133 296.559 49.9334C296.559 50.5 296.908 52.2209 296.187 51.6804" stroke="#ACA04E" stroke-width="2.25709" stroke-linecap="round" stroke-linejoin="round"/>
<path d="M266.044 10.7451C265.178 11.9347 265.541 13.2321 265.392 14.6629C265.174 16.7549 265.299 18.8994 265.299 20.9996C265.299 25.5362 265.485 30.0734 265.485 34.6034C265.485 36.4607 266.024 38.4923 265.63 40.3302C265.34 41.6829 265.113 43.1126 265.113 44.5065C265.113 45.9332 265.299 47.3676 265.299 48.8067C265.299 50.0817 265.208 51.3619 265.485 52.6108" stroke="#ACA04E" stroke-width="2.25709" stroke-linecap="round" stroke-linejoin="round"/>
<path d="M300.234 10.2255C300.833 10.2255 301.437 10.2462 302.036 10.2255C302.395 10.2132 302.64 9.9399 302.953 9.93069C304.047 9.89852 305.123 10.2255 306.205 10.2255C306.884 10.2255 307.452 10.3333 308.113 10.4385C309.482 10.6562 310.972 10.5204 312.355 10.5204C314.536 10.5204 316.686 10.5668 318.866 10.6596C322.014 10.7935 325.191 10.6678 328.342 10.6678C329.265 10.6678 330.187 10.6678 331.11 10.6678C331.678 10.6678 332.486 10.4987 332.961 10.8152" stroke="#ACA04E" stroke-width="2.25709" stroke-linecap="round" stroke-linejoin="round"/>
<path d="M332.962 11.1099C332.962 13.4922 333.082 15.914 332.782 18.2842C332.548 20.1271 332.784 21.9424 332.815 23.7878C332.875 27.3644 333.404 30.8771 333.404 34.4591C333.404 36.6622 333.287 38.9018 333.413 41.1011C333.506 42.7408 333.699 44.3968 333.699 46.0396C333.699 47.7304 334.098 49.8415 333.257 51.3548" stroke="#ACA04E" stroke-width="2.25709" stroke-linecap="round" stroke-linejoin="round"/>
<path d="M299.937 10.3728C299.594 12.6862 299.79 15.1144 299.79 17.4488C299.79 19.8958 299.79 22.3386 299.79 24.7869C299.79 28.2956 300.002 31.7853 300.347 35.27C300.706 38.9065 300.822 42.5106 300.822 46.1625C300.822 47.0946 300.758 48.0507 300.83 48.9798C300.871 49.5176 300.969 50.0319 300.969 50.5768C300.969 51.01 300.881 51.4705 301.117 50.7652" stroke="#ACA04E" stroke-width="2.25709" stroke-linecap="round" stroke-linejoin="round"/>
<path d="M302.004 10.6677C302.004 10.9134 302.004 11.1591 302.004 11.4048" stroke="#ACA04E" stroke-width="2.25709" stroke-linecap="round" stroke-linejoin="round"/>
<path d="M302.004 11.4048C303.154 12.9227 302.741 15.2722 302.741 17.0885C302.741 18.5409 302.741 19.9932 302.741 21.4455C302.741 25.2352 302.71 29.0179 303.003 32.7967C303.195 35.2661 303.152 37.8579 303.183 40.3313C303.197 41.4398 303.331 42.5397 303.331 43.6564C303.331 44.067 303.087 45.7048 303.478 45.9004" stroke="#ACA04E" stroke-width="2.25709" stroke-linecap="round" stroke-linejoin="round"/>
<path d="M313.355 26.8835C314.763 26.9028 316.123 27.1784 317.532 27.1784C318.767 27.1784 320.112 27.0247 321.316 27.3258" stroke="#ACA04E" stroke-width="2.25709" stroke-linecap="round" stroke-linejoin="round"/>
<path d="M311.293 29.2424C312.718 30.0565 314.354 29.8179 315.945 29.8321C317.785 29.8485 319.618 30.1269 321.457 30.1269C322.873 30.1269 324.672 29.82 326.035 30.2744" stroke="#ACA04E" stroke-width="2.25709" stroke-linecap="round" stroke-linejoin="round"/>
<path d="M339.895 9.34133C340.628 8.65058 341.277 8.75167 342.22 8.75167C343.306 8.75167 344.374 8.60425 345.455 8.60425C349.474 8.60425 353.477 9.19392 357.486 9.19392C358.635 9.19392 359.711 9.47983 360.844 9.48875C363.197 9.50728 365.545 9.34133 367.887 9.34133C369.765 9.34133 371.624 9.48875 373.506 9.48875" stroke="#ACA04E" stroke-width="2.25709" stroke-linecap="round" stroke-linejoin="round"/>
<path d="M373.795 9.93066C373.392 10.3594 373.191 10.5189 373.353 11.0609C373.686 12.178 373.416 13.4113 373.803 14.5088C374.42 16.2573 374 18.2571 374.164 20.0861C374.467 23.4885 374.385 26.9721 374.385 30.3889C374.385 31.6065 374.488 32.8027 374.54 34.017C374.602 35.4345 374.56 36.9407 374.688 38.3495C374.753 39.0653 374.831 39.8243 375.007 40.528C375.091 40.8645 375.099 41.1491 375.13 41.4944C375.245 42.7561 375.269 41.834 375.269 41.0357" stroke="#ACA04E" stroke-width="2.25709" stroke-linecap="round" stroke-linejoin="round"/>
<path d="M340.483 9.63599C339.91 10.2265 339.818 10.983 339.926 11.7817C340.068 12.8255 340.026 13.876 340.041 14.9266C340.064 16.559 340.366 18.2512 340.475 19.8897C340.622 22.0969 340.755 24.3699 341.04 26.589C341.339 28.9133 341.424 31.2646 341.736 33.5749C341.872 34.5769 341.996 35.6008 342.096 36.6052C342.137 37.0076 342.195 37.3999 342.252 37.8009C342.29 38.0652 342.251 38.9739 342.547 38.5298" stroke="#ACA04E" stroke-width="2.25709" stroke-linecap="round" stroke-linejoin="round"/>
<path d="M342.691 42.0677C343.476 41.974 344.116 41.9307 344.886 42.0677C345.932 42.2537 346.998 42.1192 348.039 42.297C349.787 42.5954 351.473 42.3952 353.24 42.2151C356.169 41.9167 359.096 42.1115 362.011 42.3544C366.467 42.7257 379.89 42.8048 375.418 42.8048" stroke="#ACA04E" stroke-width="2.25709" stroke-linecap="round" stroke-linejoin="round"/>
<path d="M341.656 42.51C342.392 44.4875 342.393 47.0117 342.393 49.111C342.393 49.6625 342.393 50.2139 342.393 50.7654C342.393 50.9396 342.541 52.1481 342.541 51.6499" stroke="#ACA04E" stroke-width="2.25709" stroke-linecap="round" stroke-linejoin="round"/>
<path d="M343.722 51.6499C342.186 52.4651 341.419 54.3805 340.921 55.9905C340.583 57.0869 340.416 58.4379 340.34 59.5777C340.303 60.1296 339.998 61.6979 340.774 61.232" stroke="#ACA04E" stroke-width="2.25709" stroke-linecap="round" stroke-linejoin="round"/>
<path d="M376.007 43.2469C376.23 42.1843 376.007 43.21 376.007 43.6073C376.007 44.9013 376.007 46.1953 376.007 47.4892C376.007 48.8398 376.05 50.1685 375.859 51.5023" stroke="#ACA04E" stroke-width="2.25709" stroke-linecap="round" stroke-linejoin="round"/>
<path d="M341.656 8.75131C343.42 8.39207 345.198 8.0379 346.996 7.89957C348.668 7.77093 350.279 8.03175 351.959 7.83405C355.573 7.40884 359.308 7.27714 362.95 7.27714C364.493 7.27714 366.34 7.00156 367.847 7.3099C369.11 7.56822 368.257 9.15261 368.928 9.4884" stroke="#ACA04E" stroke-width="2.25709" stroke-linecap="round" stroke-linejoin="round"/>
<path d="M378.809 2.85477C379.604 2.85477 380.404 2.89819 381.192 2.77288C381.724 2.68824 382.752 2.31735 383.264 2.44528C384.42 2.73435 385.552 2.93222 386.687 3.29703C388.46 3.86682 390.294 3.56665 392.076 4.00135C394.862 4.68085 397.779 4.71548 400.61 5.14793C402.009 5.36165 403.163 5.64558 404.59 5.6557C405.213 5.66012 405.924 5.66288 406.523 5.87683C407.253 6.13751 408.186 5.93553 408.964 6.0652C409.757 6.19737 410.567 6.20938 411.347 6.39279C411.679 6.47087 416.408 6.96632 416.105 7.57213" stroke="#ACA04E" stroke-width="2.25709" stroke-linecap="round" stroke-linejoin="round"/>
<path d="M417.139 8.60425C416.054 13.7871 415.583 19.0722 414.895 24.3288C414.639 26.2787 413.972 28.2 413.756 30.1436C413.59 31.6415 413.629 33.1089 413.601 34.6152C413.57 36.2155 413.509 37.5824 413.813 39.1934C414.085 40.6314 414.207 42.096 414.452 43.5422C414.595 44.3824 414.904 45.1964 414.927 46.0483C414.944 46.6411 415.144 47.4241 415.37 47.9647C415.648 48.6324 415.822 49.7435 416.254 50.1759" stroke="#ACA04E" stroke-width="2.25709" stroke-linecap="round" stroke-linejoin="round"/>
<path d="M379.103 3.00195C379.103 5.45034 378.808 7.86088 378.808 10.3073C378.808 13.3244 378.661 16.3431 378.661 19.3653C378.661 21.1099 378.587 22.8153 378.874 24.5331C379.262 26.8641 378.909 29.3453 379.177 31.6992C379.636 35.7395 379.233 39.9786 378.964 44.0167C378.88 45.2804 378.977 46.4964 378.694 47.7349C378.58 48.2332 378.661 48.8341 378.661 49.3401C378.661 50.1642 378.661 50.3928 378.661 49.291" stroke="#ACA04E" stroke-width="2.25709" stroke-linecap="round" stroke-linejoin="round"/>
<path d="M382.936 4.47607C383.321 7.6506 383.084 10.8856 383.084 14.091C383.084 17.6754 382.641 21.1747 382.641 24.7542C382.641 26.6447 382.347 28.5091 382.347 30.4052C382.347 31.7721 382.114 33.0356 381.904 34.3854C381.707 35.6568 381.462 37.0487 381.462 38.3329C381.462 39.192 381.469 40.0479 381.388 40.9045C381.325 41.5766 381.267 41.9141 381.462 41.0356" stroke="#ACA04E" stroke-width="2.25709" stroke-linecap="round" stroke-linejoin="round"/>
<path d="M385.594 7.57212C386.389 7.57212 387.74 7.26724 386.511 7.86696C386.023 8.10478 386.186 8.81147 386.151 9.25923C386.133 9.48385 385.879 10.6922 386.183 9.9308" stroke="#ACA04E" stroke-width="2.25709" stroke-linecap="round" stroke-linejoin="round"/>
<path d="M387.507 7.57227C387.723 8.21954 387.728 8.77286 387.622 9.43955C387.59 9.64259 387.361 10.4472 387.384 10.3814C387.497 10.0627 387.738 8.91644 388.097 8.78436C388.413 8.66777 388.7 9.93999 388.752 10.1275C388.924 10.7395 391.323 10.6768 391.602 10.193C391.924 9.63555 390.149 10.635 389.972 10.8482C389.372 11.5736 392.163 10.6896 392.225 10.668" stroke="#ACA04E" stroke-width="2.25709" stroke-linecap="round" stroke-linejoin="round"/>
<path d="M396.205 9.19342C395.818 8.14353 395.343 8.00918 394.321 8.56281C393.648 8.92715 393.073 9.27363 393.6 9.97965C394.152 10.7186 395.709 12.7305 393.756 11.3474C393.098 10.8816 395.648 11.0211 395.795 11.0361C396.022 11.0592 396.649 11.0498 396.467 10.9133C396.406 10.8679 396.058 11.3805 396.369 11.5193C396.875 11.7456 397.732 11.2975 398.056 10.9133C398.068 10.8987 398.18 10.469 398.236 10.5529C398.419 10.8273 398.122 11.3607 398.522 11.5521C399.12 11.8379 399.371 10.6227 399.882 10.7249C400.233 10.7952 400.484 11.1591 400.889 11.2245C401.231 11.2796 401.682 11.1704 401.995 11.3392C402.28 11.4928 402.707 12.4864 402.839 12.7314" stroke="#ACA04E" stroke-width="2.25709" stroke-linecap="round" stroke-linejoin="round"/>
<path d="M407.109 11.6997C406.627 11.8558 403.215 12.9594 405.372 13.5424C406.108 13.7411 406.753 13.5753 407.387 13.2066C407.711 13.0185 407.42 13.2065 407.707 13.3786C407.974 13.5388 409.395 13.3878 409.377 13.6325C409.331 14.2857 410.617 14.0584 411.097 14.0584C411.53 14.0584 411.731 14.2238 412.088 14.4351C412.736 14.8185 413.444 13.9663 413.89 13.6161" stroke="#ACA04E" stroke-width="2.25709" stroke-linecap="round" stroke-linejoin="round"/>
<path d="M386.035 29.5371C385.399 30.1922 383.847 32.5108 384.954 33.3044C386.458 34.3825 387.57 32.2519 387.657 31.044C387.69 30.5751 388.177 31.0119 388.361 31.1587C389.022 31.6851 389.22 31.468 389.884 30.9949C390.829 30.3219 389.449 32.7348 390.9 32.1906" stroke="#ACA04E" stroke-width="2.25709" stroke-linecap="round" stroke-linejoin="round"/>
<path d="M393.111 29.832C393.082 31.427 392.727 33.1631 393.111 34.6968" stroke="#ACA04E" stroke-width="2.25709" stroke-linecap="round" stroke-linejoin="round"/>
<path d="M394.434 31.7486C395.124 31.7486 396.358 31.4958 396.022 32.5839C395.817 33.2488 394.219 35.406 395.752 34.1728C396.237 33.7825 396.526 33.3848 397.177 33.6159C397.862 33.8589 398.357 34.4926 398.856 34.9918" stroke="#ACA04E" stroke-width="2.25709" stroke-linecap="round" stroke-linejoin="round"/>
<path d="M402.838 32.4854C402.692 32.5675 401.604 33.037 401.921 33.419C402.14 33.6839 402.843 33.5571 403.084 33.4354C403.149 33.4024 403.798 32.6455 403.411 32.6983C402.64 32.8034 402.104 34.2055 401.945 34.8276C401.69 35.8306 403.441 35.1411 403.362 36.482C403.329 37.0473 402.941 37.7587 403.837 37.5958C404.416 37.4906 404.927 37.2654 405.491 37.2027" stroke="#ACA04E" stroke-width="2.25709" stroke-linecap="round" stroke-linejoin="round"/>
<path d="M408 34.2548C406.013 33.8898 408.547 33.7882 409.082 34.0747C409.559 34.3305 408.117 35.779 407.968 35.9747C407.918 36.0404 406.812 37.8385 407.132 37.0148C407.272 36.6549 407.368 36.1784 407.575 35.8519C407.857 35.4054 408.792 36.7251 408.934 36.892C409.249 37.2623 409.615 37.5964 409.901 37.9894C410.071 38.2241 410.303 37.5872 410.359 37.498" stroke="#ACA04E" stroke-width="2.25709" stroke-linecap="round" stroke-linejoin="round"/>
<path d="M411.095 33.6648C410.81 35.1527 410.358 36.6761 410.358 38.202C410.358 38.5276 410.296 38.5736 410.211 38.2347" stroke="#ACA04E" stroke-width="2.25709" stroke-linecap="round" stroke-linejoin="round"/>
<path d="M7.0479 53.6493C6.76643 53.6853 0.426003 54.2297 3.28185 54.1828C7.8796 54.1074 12.4786 53.9901 17.077 53.9826C42.5063 53.9411 67.9254 54.0651 93.3584 53.6477C130.742 53.034 168.138 53.559 205.525 53.2478C243.253 52.9338 280.976 52.7773 318.703 52.3072C354.675 51.8589 462.591 50.417 426.621 51.0074M7.14506 59.5683C6.86359 59.6042 0.523162 60.1487 3.37901 60.1018C7.97676 60.0263 12.5758 59.9091 17.1742 59.9016C42.6034 59.8601 68.0225 59.9841 93.4556 59.5666C130.839 58.953 168.235 59.4779 205.622 59.1667C243.35 58.8527 281.073 58.6963 318.8 58.2262C354.772 57.7779 462.688 56.336 426.718 56.9264M2.00229 53.8716C2.24795 55.2605 2.17638 56.701 2.1995 58.1092L2.22103 59.4208C2.22694 59.7807 2.04433 60.5918 2.48988 60.2461M434.048 50.7368C433.687 52.0337 433.837 53.4314 433.859 54.768C433.867 55.2549 433.637 55.7225 433.627 56.2043C433.617 56.7425 433.571 57.2693 433.758 56.3582M433.647 57.3812C432.507 57.6287 430.984 58.568 430.104 59.2832C429.358 59.8895 427.926 60.4199 427.006 60.6815C426.367 60.8633 425.872 61.3384 425.188 61.3496C424.976 61.3531 424.315 61.6192 424.398 61.6179M3.38529 60.359C4.30918 60.9122 5.25878 61.4443 6.10188 62.1157C6.44785 62.3912 6.76669 62.8118 7.14526 63.0347C7.56694 63.283 8.02771 63.4105 8.41888 63.723C8.84012 64.0595 11.9771 66.1457 12.1575 65.9593M13.5402 66.8695C13.5402 66.8695 31.5549 67.6761 39.9792 67.5784C48.4036 67.4807 72.6677 67.1992 72.6677 67.1992C118.001 66.6734 163.409 66.8562 208.723 65.5083C236.948 64.6688 265.179 64.4586 293.415 64.1311C303.258 64.0169 313.074 63.3953 322.911 63.2812C335.747 63.1324 348.711 63.5004 361.519 62.5796C374.747 61.6287 388.134 62.017 401.397 61.8632C408.268 61.7835 415.107 61.1964 421.98 61.1167C423.072 61.104 423.831 61.1969 424.738 60.577" stroke="#ACA04E" stroke-width="2.25709" stroke-linecap="round" stroke-linejoin="round"/>
</svg>
