<svg width="436" height="81" viewBox="0 0 436 81" fill="none" xmlns="http://www.w3.org/2000/svg">
<path d="M74 18H70.5L67 50H77L74 18Z" fill="#CEBF55"/>
<path d="M159 7.99996H156L154.5 50H161.5C157.5 50 158.167 22 159 7.99996Z" fill="#CEBF55"/>
<path d="M216 52C211.2 51.6 212 26.5 213 14L211 18L209 52C213.333 52.1666 220.8 52.4 216 52Z" fill="#CEBF55"/>
<path d="M278 9.99996H275.5V52H281.5L278 9.99996Z" fill="#CEBF55"/>
<path d="M352.5 7.99996C350.9 10.4 347.833 10.3333 346.5 9.99996V52H352.5C353.167 36.3333 354.1 5.59996 352.5 7.99996Z" fill="#CEBF55"/>
<path d="M413.5 52L406 21L403 34L401 52H413.5Z" fill="#CEBF55"/>
<path d="M431 77L425 64H13L20 81H431V79V77Z" fill="#CEBF55"/>
<path d="M35.3234 13.4006C35.5331 14.9996 35.3234 16.5744 35.3234 18.1789C35.3234 19.8456 35.3234 21.5123 35.3234 23.179C35.3234 24.9794 35.2059 26.7686 35.2059 28.5643C35.2059 30.5917 34.7359 32.6016 34.7359 34.6285C34.7359 39.5412 34.1484 54.2676 34.1484 49.3549" stroke="#ACA04E" stroke-width="2.25709" stroke-linecap="round" stroke-linejoin="round"/>
<path d="M35.6758 13.7533C36.3968 13.2757 37.0881 12.6482 37.967 12.5718C38.2568 12.5466 38.622 12.4639 38.8743 12.3172C39.2468 12.1007 39.5396 12.0503 39.9318 11.9255C40.5338 11.734 41.0978 11.3948 41.6943 11.2271C42.439 11.0176 43.1402 10.6303 43.9006 10.4895C44.681 10.3449 45.4711 10.265 46.2506 10.1109C47.7469 9.81487 49.1583 9.16715 50.6567 8.88366C51.3216 8.75787 51.8871 8.71687 52.5432 8.50506C53.0251 8.3495 54.1032 7.84762 54.6451 8.00243C55.0283 8.11192 54.3096 10.2848 54.2665 10.5809C53.683 14.5926 55.0629 18.4594 55.0629 22.4481C55.0629 25.5989 55.1171 28.7115 55.2913 31.8479C55.4625 34.9294 55.4154 38.0163 55.4154 41.1041C55.4154 42.9995 55.2979 44.9192 55.2979 46.7962C55.2979 47.448 55.1804 48.0673 55.1804 48.7088C55.1804 49.2643 55.0385 50.0963 54.9454 48.885" stroke="#ACA04E" stroke-width="2.25709" stroke-linecap="round" stroke-linejoin="round"/>
<path d="M34.0312 50.2952C35.8786 50.2952 37.7301 50.2952 39.5797 50.2952C41.6359 50.2952 43.6803 50.0602 45.7418 50.0602C47.6913 50.0602 49.5867 49.9075 51.5188 49.7142C52.0073 49.6654 52.5237 49.7077 53.0136 49.7077C53.5148 49.7077 54.3412 49.9576 54.2408 49.3552" stroke="#ACA04E" stroke-width="2.25709" stroke-linecap="round" stroke-linejoin="round"/>
<path d="M54.3555 14.8105C55.1169 14.8279 55.7616 15.1155 56.5031 15.2153C57.6072 15.3639 58.7646 15.3921 59.8779 15.4894C61.1786 15.6031 62.5151 15.5155 63.8205 15.5155C64.7127 15.5155 65.6048 15.5155 66.4969 15.5155C67.0027 15.5155 67.7709 15.1697 67.8677 15.7505" stroke="#ACA04E" stroke-width="2.25709" stroke-linecap="round" stroke-linejoin="round"/>
<path d="M67.7501 15.5156C67.4692 16.4789 67.7975 17.5093 67.724 18.5053C67.5964 20.235 67.5658 21.9573 67.489 23.6882C67.4154 25.3482 67.2801 26.9859 67.2801 28.6492C67.2801 29.8975 67.3409 31.1635 67.254 32.4092C67.0561 35.2464 66.6926 38.1284 66.6926 40.9734C66.6926 41.9874 66.5751 42.987 66.5751 44.0022C66.5751 44.9108 66.6245 45.8206 66.4838 46.7177C66.4041 47.2256 66.4577 47.7852 66.4577 48.2974C66.4577 48.786 66.6078 49.6127 66.2227 48.6499" stroke="#ACA04E" stroke-width="2.25709" stroke-linecap="round" stroke-linejoin="round"/>
<path d="M68.6906 16.5732C68.6906 21.1883 68.9696 25.8514 68.5731 30.451C68.3853 32.6296 68.3381 34.8558 68.3381 37.0439C68.3381 38.603 68.121 40.1621 68.1031 41.7177C68.0846 43.3289 67.9856 44.9201 67.9856 46.5286C67.9856 47.1164 68.1772 49.4246 67.5156 49.59" stroke="#ACA04E" stroke-width="2.25709" stroke-linecap="round" stroke-linejoin="round"/>
<path d="M54.9414 50.4126C56.1713 49.9249 57.6368 50.1806 58.9233 50.3473C60.3404 50.531 61.9316 50.2951 63.3686 50.2951C64.1149 50.2951 64.8612 50.2951 65.6076 50.2951C65.8555 50.2951 66.9423 50.1669 66.5737 50.4126" stroke="#ACA04E" stroke-width="2.25709" stroke-linecap="round" stroke-linejoin="round"/>
<path d="M110.016 2.66357C109.731 4.44292 109.83 6.25139 109.83 8.04926C109.83 10.7985 109.272 13.5218 109.272 16.257C109.272 19.3395 108.9 22.3879 108.9 25.4778C108.9 28.3022 108.739 31.0987 108.538 33.913C108.392 35.9617 108.353 38.1315 108.011 40.1463C107.705 41.9443 107.46 43.8288 107.411 45.6457C107.379 46.8328 107.279 48.0009 107.225 49.181C107.168 50.4383 107.039 51.3638 107.039 49.181" stroke="#ACA04E" stroke-width="2.25709" stroke-linecap="round" stroke-linejoin="round"/>
<path d="M110.02 3.22191C110.08 1.97772 110.753 2.09493 111.86 2.02279C113.113 1.94104 114.413 2.10549 115.674 2.10549C118.102 2.10549 120.7 1.80835 123.086 2.29156C124.291 2.53563 125.484 2.43323 126.704 2.4983C128.716 2.6056 130.543 3.22191 132.586 3.22191C135.349 3.22191 138.065 3.71468 140.814 3.97653C144.288 4.30734 147.898 4.89654 151.41 4.89654C152.686 4.89654 156.511 5.08261 155.235 5.08261" stroke="#ACA04E" stroke-width="2.25709" stroke-linecap="round" stroke-linejoin="round"/>
<path d="M155.047 5.26855C155.047 8.75614 154.837 12.2503 154.634 15.7298C154.445 18.9659 154.443 22.2092 154.293 25.4468C154.188 27.7065 153.745 29.8532 153.745 32.135C153.745 34.1295 153.559 36.1192 153.559 38.1202C153.559 39.7736 153.366 41.5899 153.6 43.2268C153.773 44.4373 153.568 45.7418 153.838 46.9275C154.066 47.9297 154.117 48.9797 154.117 50.008C154.117 50.4014 154.324 52.3973 153.931 51.4139" stroke="#ACA04E" stroke-width="2.25709" stroke-linecap="round" stroke-linejoin="round"/>
<path d="M117.095 6.01294C116.899 8.0544 116.723 10.1991 116.723 12.2359C116.723 12.5245 116.531 14.0092 116.909 13.4971C117.202 13.1012 118.142 12.723 118.625 12.7115C119.514 12.6903 120.589 12.5584 121.416 12.8562C122.651 13.3006 123.05 13.8676 123.05 15.2131C123.05 16.366 121.079 16.7832 120.238 16.5155C119.622 16.3197 118.546 16.3069 118.388 15.5955C118.288 15.1485 118.164 14.8398 117.654 14.9856C116.835 15.2196 116.165 16.0757 115.379 16.4329C114.718 16.7334 114.937 16.9996 115.462 17.3632C116.547 18.114 117.649 18.3471 118.935 18.49C120.833 18.7008 123.748 19.1677 125.448 18.0144C127.747 16.4546 127.3 12.7649 125.531 10.9955C124.566 10.0313 123.311 9.92041 121.975 9.92041C121.438 9.92041 119.354 10.2915 119.545 9.23815C119.767 8.01696 123.005 8.82832 123.773 9.07275C124.43 9.28174 125.489 9.34152 126.182 9.34152C126.584 9.34152 126.399 7.13587 126.399 6.75722" stroke="#ACA04E" stroke-width="2.25709" stroke-linecap="round" stroke-linejoin="round"/>
<path d="M139.98 10.2928C138.212 9.42669 135.923 9.48959 134.253 10.6649C133.438 11.2387 133.194 12.4663 133.013 13.3733C132.734 14.7685 134.125 16.0786 135.432 16.34C136.315 16.5168 137.17 16.6777 138.078 16.6191C139.01 16.559 139.21 15.3367 139.432 14.6344C139.717 13.7307 139.897 12.7913 139.752 11.8433C139.675 11.3367 139.611 10.6843 139.07 10.4788C138.52 10.2696 138.237 10.3251 138.119 9.73455" stroke="#ACA04E" stroke-width="2.25709" stroke-linecap="round" stroke-linejoin="round"/>
<path d="M140.54 6.94295C139.097 6.66007 137.971 6.02877 136.467 6.0126C135.106 5.99796 133.936 6.39659 132.663 6.88092C131.328 7.38857 130.6 8.33017 129.748 9.44455C128.868 10.5945 128.735 11.2774 128.342 12.6284C127.664 14.9595 128.894 17.1432 130.637 18.562C131.295 19.0979 132.077 19.5318 132.911 19.7404C133.719 19.9424 134.593 19.6796 135.412 19.8748C136.809 20.2074 139.751 20.6147 140.933 19.5647C142.32 18.3315 143.229 17.0572 143.6 15.2024C144.072 12.8384 143.272 10.4191 141.594 8.74162C140.292 7.43926 137.096 6.43827 135.33 6.94295" stroke="#ACA04E" stroke-width="2.25709" stroke-linecap="round" stroke-linejoin="round"/>
<path d="M145.375 7.50168C146.401 7.50168 147.428 7.50168 148.455 7.50168C148.872 7.50168 149.956 7.21459 150.306 7.40865C151.042 7.81759 150.634 10.6343 150.729 11.4298C150.995 13.6546 150.585 15.9679 150.585 18.2007C150.585 19.0059 150.602 20.4503 150.192 21.1675C149.981 21.5368 148.024 21.3049 147.618 21.1778C146.897 20.9527 147.054 19.5685 147.049 18.976C147.031 16.7883 147.049 14.5997 147.049 12.4119C147.049 11.8285 147.144 11.1591 147.039 10.5822C146.93 9.98412 145.065 10.2927 144.63 10.2927C144.149 10.2927 144.04 10.5099 144.082 9.94126C144.13 9.30164 143.917 7.33084 144.63 7.68775" stroke="#ACA04E" stroke-width="2.25709" stroke-linecap="round" stroke-linejoin="round"/>
<path d="M42.8533 16.8047C44.4891 16.8047 45.7656 15.9827 47.3087 15.864C47.7233 15.8321 47.9963 15.6144 48.3527 15.5126C48.8175 15.3798 47.7293 16.9091 47.5981 17.0528C46.8574 17.8641 45.8946 18.5647 45.0655 19.2856C44.5996 19.6908 44.259 19.6472 43.8044 19.9472C42.8392 20.5842 42.8533 21.1213 42.8533 19.6785C42.8533 18.5958 42.4783 17.6427 43.5976 17.3629" stroke="#ACA04E" stroke-width="2.25709" stroke-linecap="round" stroke-linejoin="round"/>
<path d="M47.8711 19.4096C48.9512 18.1536 50.2989 17.4621 51.5511 16.4118C52.0006 16.0349 53.1404 14.8468 53.4532 15.3161" stroke="#ACA04E" stroke-width="2.25709" stroke-linecap="round" stroke-linejoin="round"/>
<path d="M47.5 19.7824C49.4082 19.5346 51.2333 18.8434 53.1545 18.6763C53.4987 18.6464 54.6102 18.666 54.5707 18.666" stroke="#ACA04E" stroke-width="2.25709" stroke-linecap="round" stroke-linejoin="round"/>
<path d="M35.2195 31.5046C36.577 31.7309 36.522 31.6308 36.522 33.0139C36.522 34.3818 36.522 35.7498 36.522 37.1177C36.522 37.7433 36.3911 38.1113 35.8191 38.4926C35.6117 38.6309 35.3101 38.5753 35.0748 38.5753C34.4744 38.5753 35.2113 38.1836 35.4056 38.0171" stroke="#ACA04E" stroke-width="2.25709" stroke-linecap="round" stroke-linejoin="round"/>
<path d="M37.6367 31.5045C37.6367 33.4651 37.6367 35.4257 37.6367 37.3864C37.6367 38.4068 38.5019 37.8282 39.1253 37.5001C39.8022 37.1438 39.3113 33.5059 39.3113 32.745C39.3113 31.6069 39.5237 30.9463 38.1949 30.9463" stroke="#ACA04E" stroke-width="2.25709" stroke-linecap="round" stroke-linejoin="round"/>
<path d="M45.2666 28.5272C45.2388 30.645 44.8945 32.733 44.8945 34.8536C44.8945 35.3176 44.759 35.929 45.4113 35.7426C45.7618 35.6425 46.5053 35.7436 46.5691 35.3291C46.8724 33.3575 46.9183 31.1738 46.7448 29.1785C46.6431 28.0083 46.6366 27.6731 45.4527 27.969" stroke="#ACA04E" stroke-width="2.25709" stroke-linecap="round" stroke-linejoin="round"/>
<path d="M48.9848 27.5972C48.6724 30.3696 48.7987 33.1824 48.7987 35.9703C48.7987 36.6543 49.2512 36.2132 49.8221 36.146C50.34 36.0851 50.7842 35.9703 51.3106 35.9703C52.5972 35.9703 51.875 30.6502 51.7861 29.8507C51.6807 28.9019 52.1396 27.8081 50.8455 27.7832C50.2246 27.7713 49.3223 27.6202 48.7987 27.9693" stroke="#ACA04E" stroke-width="2.25709" stroke-linecap="round" stroke-linejoin="round"/>
<path d="M34.2852 43.7847C34.953 43.7847 35.6228 43.7987 36.2906 43.7847C36.4326 43.7818 36.6405 43.5543 36.7041 43.6814C36.9193 44.1119 36.2973 46.1883 36.2492 46.6482C36.1669 47.4365 36.1459 48.2145 36.1459 49.005C36.1459 50.3351 36.2514 49.9263 36.8901 48.8086" stroke="#ACA04E" stroke-width="2.25709" stroke-linecap="round" stroke-linejoin="round"/>
<path d="M37.8242 43.2265C38.2245 43.201 40.3617 42.428 40.4189 42.8854C40.5718 44.1091 40.5133 45.4117 40.6049 46.6482C40.6805 47.6689 40.6153 48.7147 40.6153 49.739" stroke="#ACA04E" stroke-width="2.25709" stroke-linecap="round" stroke-linejoin="round"/>
<path d="M37.4492 42.8547C37.4492 44.4895 37.7037 46.1919 37.625 47.8063C37.573 48.8711 37.1095 49.6989 38.0074 50.2975" stroke="#ACA04E" stroke-width="2.25709" stroke-linecap="round" stroke-linejoin="round"/>
<path d="M44.7097 45.0874C44.7097 45.7396 44.3707 48.2589 45.0818 48.4367" stroke="#ACA04E" stroke-width="2.25709" stroke-linecap="round" stroke-linejoin="round"/>
<path d="M44.332 45.0875C45.0838 44.64 45.8749 44.5147 46.6062 44.1158C47.3863 43.6903 47.2661 43.841 47.3505 44.6533C47.4941 46.0355 47.6813 50.1985 47.6813 48.8089" stroke="#ACA04E" stroke-width="2.25709" stroke-linecap="round" stroke-linejoin="round"/>
<path d="M49.1797 44.3432C50.343 44.1268 51.1558 43.71 52.2395 43.3198C52.48 43.2333 53.6454 42.6685 53.4593 43.0407" stroke="#ACA04E" stroke-width="2.25709" stroke-linecap="round" stroke-linejoin="round"/>
<path d="M49.7332 44.9016C49.4874 46.054 49.5081 47.2704 49.2163 48.3956C49.0876 48.8922 51.2974 48.0287 51.6353 47.9201C52.3498 47.6904 54.3754 48.2699 54.7571 47.5066" stroke="#ACA04E" stroke-width="2.25709" stroke-linecap="round" stroke-linejoin="round"/>
<path d="M172.91 7.50122C173.319 9.59364 172.746 11.5851 172.724 13.6829C172.699 16.1287 172.552 18.5889 172.311 21.0223C172.039 23.7718 171.45 26.4499 171.422 29.23C171.404 30.9783 171.306 33.0365 170.864 34.7294C170.432 36.3781 170.462 38.083 170.119 39.7533C169.775 41.4347 169.221 43.1934 169.189 44.9013C169.165 46.1743 168.77 47.6093 168.445 48.8294C168.3 49.3722 168.128 50.0232 168.083 50.5867C167.936 52.4211 168.2 50.2041 168.259 49.553" stroke="#ACA04E" stroke-width="2.25709" stroke-linecap="round" stroke-linejoin="round"/>
<path d="M172.539 8.43184C173.29 7.70387 173.615 7.73728 174.586 7.60486C174.963 7.55342 175.246 7.70668 175.609 7.77026C176.719 7.96445 177.878 7.82744 178.989 7.72891C179.928 7.64573 180.825 8.18934 181.77 8.23543C182.385 8.26541 183.009 8.19869 183.621 8.27678C184.401 8.37647 185.102 8.76849 185.895 8.80398C188.303 8.91182 190.956 8.88587 193.234 9.77567C194.445 10.2487 195.785 10.0974 196.997 10.5716C198.007 10.9667 199.237 11.1623 200.305 11.3676C202.115 11.7158 204.251 11.9194 206.114 11.9672C207.416 12.0006 208.712 12.3086 210.001 12.3393C210.777 12.3578 211.174 11.9012 211.8 11.5537C212.326 11.2615 212.172 11.4036 212.172 12.0705C212.172 12.7459 212.172 13.4213 212.172 14.0966C212.172 15.3003 211.428 16.3776 211.428 17.6009C211.428 18.1694 210.981 18.8964 210.828 19.4513C210.586 20.3309 210.382 21.2074 210.229 22.108C209.854 24.3016 209.942 26.6619 209.474 28.8168C209.006 30.9688 209.514 33.2596 209.102 35.4016C208.449 38.7981 208.637 42.4706 208.637 45.9249C208.637 47.2894 208.637 48.6539 208.637 50.0185C208.637 50.6745 208.815 51.6109 208.451 52.1583" stroke="#ACA04E" stroke-width="2.25709" stroke-linecap="round" stroke-linejoin="round"/>
<path d="M174.957 14.2002C177.121 14.6948 179.331 14.4667 181.49 14.9858C182.532 15.2362 183.544 15.3166 184.612 15.3166C185.857 15.3166 186.803 15.7416 187.992 16.0299C189.07 16.2911 190.185 16.221 191.269 16.433C192.158 16.6069 192.919 17.0522 193.833 17.1773C195.521 17.4085 197.036 17.8999 198.681 18.211C200.711 18.5951 202.718 18.7505 204.77 18.9967C205.349 19.0662 207.584 18.9813 207.891 19.5962" stroke="#ACA04E" stroke-width="2.25709" stroke-linecap="round" stroke-linejoin="round"/>
<path d="M174.582 32.4347C174.669 31.3345 175.478 31.961 176.298 32.0729C178.17 32.3282 179.945 32.4043 181.839 32.4347C184.035 32.47 185.974 33.3991 188.134 33.6132C190.268 33.8246 192.275 33.7789 194.378 34.192C196.246 34.5589 197.942 34.7184 199.743 35.3705C200.788 35.749 201.854 35.7443 202.927 35.97C203.288 36.046 204.548 36.3245 204.353 36.7143" stroke="#ACA04E" stroke-width="2.25709" stroke-linecap="round" stroke-linejoin="round"/>
<path d="M174.77 44.3429C175.059 43.709 175.59 42.4302 176.351 42.1617C177.312 41.8228 177.375 43.6516 177.375 44.1258C177.375 45.3263 176.298 44.0434 175.865 43.6503C175.848 43.6347 176.918 43.603 177.116 43.5883C177.83 43.5354 178.516 43.4125 179.235 43.4125C180.12 43.4125 178.893 43.4911 178.574 43.7847C178.112 44.2087 178.14 45.0835 178.863 45.2319C179.493 45.361 180.265 44.6364 180.91 44.529" stroke="#ACA04E" stroke-width="2.25709" stroke-linecap="round" stroke-linejoin="round"/>
<path d="M180.91 44.5291C181.848 46.737 181.959 43.0165 182.781 44.3017C183.011 44.6606 183.181 45.6052 183.712 45.2734C184.124 45.0157 184.269 45.1456 184.673 45.2321C186.023 45.5214 185.547 43.2351 184.673 44.6428C184.593 44.7719 184.231 45.7501 184.497 45.8833C185.007 46.1382 186.284 44.9915 186.678 44.7152" stroke="#ACA04E" stroke-width="2.25709" stroke-linecap="round" stroke-linejoin="round"/>
<path d="M190.773 43.971C190.718 42.881 190.121 42.8387 189.305 43.5472C188.39 44.3417 188.48 44.7852 189.181 45.5526C189.812 46.2437 189.481 46.55 188.623 46.576C187.502 46.61 187.752 46.4581 188.168 45.4596" stroke="#ACA04E" stroke-width="2.25709" stroke-linecap="round" stroke-linejoin="round"/>
<path d="M190.402 46.9484C191.156 46.1947 192.473 45.1512 192.635 44.0126C192.706 43.5134 192.169 44.9228 192.077 45.4185C191.953 46.0821 192.302 46.8634 193.111 46.5349C193.698 46.2962 192.846 44.5741 192.366 45.1083C190.77 46.8872 193.717 45.9095 194.227 46.6176C194.665 47.2257 194.708 46.8275 195.385 46.6176C195.676 46.5273 196.044 46.7623 196.357 46.7623" stroke="#ACA04E" stroke-width="2.25709" stroke-linecap="round" stroke-linejoin="round"/>
<path d="M198.219 44.3433C198.086 45.0088 197.914 45.6812 197.858 46.359C197.852 46.4254 197.896 46.8638 197.806 46.8035C197.732 46.754 197.456 46.7203 197.516 46.8862C197.799 47.6645 198.762 46.8913 199.15 46.7622" stroke="#ACA04E" stroke-width="2.25709" stroke-linecap="round" stroke-linejoin="round"/>
<path d="M200.633 45.4597C201.005 45.5217 201.377 45.5838 201.749 45.6458" stroke="#ACA04E" stroke-width="2.25709" stroke-linecap="round" stroke-linejoin="round"/>
<path d="M200.816 46.9482C200.98 47.6023 201.248 48.0415 201.561 48.6229" stroke="#ACA04E" stroke-width="2.25709" stroke-linecap="round" stroke-linejoin="round"/>
<path d="M235.616 6.57129C235.616 8.91758 235.616 11.2162 235.616 13.5489C235.616 14.019 235.682 17.1173 235.43 16.9912" stroke="#ACA04E" stroke-width="2.25709" stroke-linecap="round" stroke-linejoin="round"/>
<path d="M237.107 6.57129C236.673 10.5912 237.107 14.7877 237.107 18.8519" stroke="#ACA04E" stroke-width="2.25709" stroke-linecap="round" stroke-linejoin="round"/>
<path d="M235.242 18.4798C239.693 19.192 244.362 17.7356 248.825 17.7356C250.219 17.7356 251.599 17.3617 252.981 17.2187C253.456 17.1696 253.809 17.3634 254.263 17.3634C256.542 17.3634 258.637 17.431 260.878 17.2187C264.863 16.8413 269.098 16.6191 273.014 16.6191" stroke="#ACA04E" stroke-width="2.25709" stroke-linecap="round" stroke-linejoin="round"/>
<path d="M235.058 18.2935C235.058 21.8099 235.312 25.2224 234.872 28.7444C234.388 32.6149 234.3 36.4963 233.673 40.3531C233.281 42.7579 233.383 45.4346 233.383 47.8786C233.383 48.8055 233.383 49.7324 233.383 50.6593C233.383 51.9284 233.487 51.5582 234.313 50.4835" stroke="#ACA04E" stroke-width="2.25709" stroke-linecap="round" stroke-linejoin="round"/>
<path d="M235.992 5.64058C237.714 6.18081 239.076 5.84846 240.82 5.56822C242.413 5.31218 243.707 5.95164 245.254 6.00238C248.541 6.11014 251.819 6.757 255.095 6.757C259.23 6.757 263.35 6.94307 267.448 6.94307C268.655 6.94307 269.827 6.71272 270.973 6.42621C271.632 6.2616 271.956 6.04205 272.524 5.68193C273.164 5.27613 273.206 4.98202 273.206 5.97137C273.206 8.44336 273.02 10.8993 273.02 13.3728C273.02 13.8486 273.121 16.3899 272.834 16.2466" stroke="#ACA04E" stroke-width="2.25709" stroke-linecap="round" stroke-linejoin="round"/>
<path d="M273.575 16.4329C273.575 17.235 273.572 17.9404 273.802 18.707C274.061 19.5709 273.759 20.5094 274.04 21.3534C274.562 22.92 273.923 25.0816 273.72 26.6667C273.451 28.7548 273.203 30.8747 273.203 32.9827C273.203 34.1855 273.264 35.3855 273.058 36.5698C272.62 39.0896 273.017 41.9948 273.017 44.5708C273.017 46.117 272.831 47.6285 272.831 49.1812C272.831 50.1243 272.984 52.4722 272.645 49.9254" stroke="#ACA04E" stroke-width="2.25709" stroke-linecap="round" stroke-linejoin="round"/>
<path d="M275.064 6.75708C274.09 9.86208 274.692 13.6934 274.692 16.9496C274.692 18.9503 275.064 20.9202 275.064 22.9245C275.064 26.2117 275.251 29.5027 275.251 32.7965C275.251 37.5161 274.692 42.1586 274.692 46.8655C274.692 47.2766 275.042 50.1294 274.599 50.4835C274.53 50.5385 274.043 52.8991 274.506 51.9721" stroke="#ACA04E" stroke-width="2.25709" stroke-linecap="round" stroke-linejoin="round"/>
<path d="M307.811 8.24561C307.173 8.77933 306.658 9.54751 305.992 10.0236C305.724 10.215 305.63 10.1063 306.136 10.1063" stroke="#ACA04E" stroke-width="2.25709" stroke-linecap="round" stroke-linejoin="round"/>
<path d="M308.178 8.24561C307.965 10.4852 308.149 12.583 308.178 14.7994C308.183 15.1878 308.36 17.5431 307.992 16.9909" stroke="#ACA04E" stroke-width="2.25709" stroke-linecap="round" stroke-linejoin="round"/>
<path d="M306.697 12.3394C306.652 11.9221 306.511 8.97415 306.283 10.8922C306.105 12.3979 306.29 13.8748 306.47 15.3785C306.542 15.986 306.447 19.1921 306.883 19.41" stroke="#ACA04E" stroke-width="2.25709" stroke-linecap="round" stroke-linejoin="round"/>
<path d="M305.578 20.7127C306.275 20.0156 306.986 18.9477 307.666 18.3351C307.91 18.1158 308.908 18.2938 309.217 18.2938C310.323 18.2938 311.289 18.0592 312.37 17.932C314.654 17.6632 316.947 16.922 319.192 16.3814C321.517 15.8218 324.301 15.7531 326.707 15.9162C328.865 16.0625 330.942 16.247 333.116 16.247C334.711 16.247 336.297 15.9196 337.892 15.8645C340.047 15.7902 342.187 15.6888 344.343 15.6888C344.713 15.6888 345.158 15.5907 345.511 15.4821C345.859 15.3749 346.382 14.7398 346.7 14.7585C347.467 14.8036 346.513 22.044 346.513 23.2453C346.513 27.1631 346.513 31.0809 346.513 34.9987C346.513 38.9995 347.072 42.9444 347.072 46.9279C347.072 47.8341 347.072 48.7403 347.072 49.6466C347.072 50.3965 347.622 51.5605 346.7 50.4839" stroke="#ACA04E" stroke-width="2.25709" stroke-linecap="round" stroke-linejoin="round"/>
<path d="M305.203 21.6426C305.674 25.8845 305.319 30.2186 305.389 34.4814C305.438 37.4602 305.761 40.42 305.761 43.4128C305.761 45.3217 305.761 47.2306 305.761 49.1396C305.761 49.729 305.949 51.9795 305.575 50.2973" stroke="#ACA04E" stroke-width="2.25709" stroke-linecap="round" stroke-linejoin="round"/>
<path d="M307.992 8.98976C313.835 8.98976 319.631 9.17752 325.379 7.95604C326.36 7.74776 327.38 8.01282 328.356 7.78031C329.134 7.59522 329.919 7.47729 330.693 7.27378C332.162 6.88708 333.581 6.68096 335.076 6.46748C336.286 6.29458 337.343 5.83702 338.508 5.53713C340.034 5.14389 341.089 3.99942 342.415 3.26295C342.875 3.00719 343.31 2.53485 343.625 2.11551C344.075 1.51454 344.098 3.48433 344.131 3.69711C344.521 6.23063 344.462 8.76693 344.462 11.326C344.462 11.7429 344.438 14.1879 344.09 14.0136" stroke="#ACA04E" stroke-width="2.25709" stroke-linecap="round" stroke-linejoin="round"/>
<path d="M344.094 9.1761C344.739 9.1761 345.484 9.07875 346.13 9.18644C346.706 9.2824 345.891 10.6308 345.81 10.8507C345.532 11.6074 345.548 14.3945 344.838 14.5721" stroke="#ACA04E" stroke-width="2.25709" stroke-linecap="round" stroke-linejoin="round"/>
<path d="M367.721 10.1064C367.702 11.9889 367.163 13.7334 367.163 15.5852C367.163 16.1124 366.667 18.3243 366.977 18.4796" stroke="#ACA04E" stroke-width="2.25709" stroke-linecap="round" stroke-linejoin="round"/>
<path d="M368.281 9.92029C368.384 9.84513 369.675 8.74149 369.728 8.92792C369.899 9.52501 369.807 10.3876 369.728 10.9954C369.591 12.0616 369.575 13.1238 369.398 14.1896C369.244 15.1105 369.026 15.9804 369.026 16.9186C369.026 17.5476 369.073 18.0811 368.839 18.6656" stroke="#ACA04E" stroke-width="2.25709" stroke-linecap="round" stroke-linejoin="round"/>
<path d="M366.242 19.9681C368.081 19.1756 368.971 18.7828 370.801 19.5959C371.971 20.1158 373.179 20.4363 374.347 20.9811C375.577 21.5551 376.914 21.919 378.161 22.48C378.892 22.8091 379.699 22.7456 380.477 22.8728C381.812 23.0913 383.147 23.5519 384.436 23.9582C386.378 24.5705 388.396 24.9036 390.359 25.4468C391.535 25.7722 392.529 26.2869 393.656 26.6666C395.879 27.4148 397.905 28.5018 400.19 29.1475C401.271 29.4532 402.834 29.2775 403.787 30.0572C404.3 30.4772 404.15 30.9444 403.921 31.5044C403.341 32.9231 402.588 34.0686 402.247 35.5876C401.677 38.1197 401.018 40.6994 400.386 43.2268C399.709 45.936 400.107 54.3925 400.107 51.5999" stroke="#ACA04E" stroke-width="2.25709" stroke-linecap="round" stroke-linejoin="round"/>
<path d="M366.056 19.968C366.056 23.9234 366.185 27.794 365.219 31.6594C364.843 33.1624 365.141 34.7852 364.898 36.3008C364.648 37.8653 364.414 39.4305 364.154 40.9939C363.918 42.41 363.942 43.8477 363.813 45.2735C363.696 46.5551 363.265 47.7827 363.265 49.0673C363.265 49.7378 362.9 51.7879 362.148 51.5999" stroke="#ACA04E" stroke-width="2.25709" stroke-linecap="round" stroke-linejoin="round"/>
<path d="M370.145 8.61792C369.77 9.27297 369.116 10.1065 370.186 10.1065C371.07 10.1065 371.98 10.0531 372.75 10.582C374.437 11.742 376.891 11.5974 378.766 12.2463C380.318 12.7834 382.013 12.7089 383.573 13.2593C385.225 13.8423 387.069 13.7999 388.762 14.3861C390.279 14.9111 391.88 15.0899 393.331 15.7919C395.282 16.736 397.479 16.92 399.513 17.632C400.919 18.1242 402.162 18.2716 403.596 18.521C404.253 18.6353 404.872 18.6657 405.539 18.6657C406.582 18.6657 406.215 19.3304 405.974 20.1749C405.36 22.3237 404.803 24.5503 403.865 26.584C403.388 27.6178 403.827 29.2401 402.521 29.4577" stroke="#ACA04E" stroke-width="2.25709" stroke-linecap="round" stroke-linejoin="round"/>
<path d="M7.04858 48.6021C6.76656 48.6334 0.41805 49.0737 3.27428 49.0737C7.87265 49.0737 12.473 49.0319 17.0709 49.0999C42.4974 49.4758 67.911 50.017 93.3475 50.017C130.736 50.017 168.118 51.1556 205.505 51.4581C243.233 51.7633 280.954 52.2261 318.683 52.3751C354.658 52.5173 462.583 52.8468 426.608 52.8468M7.04858 54.5218C6.76656 54.5531 0.41805 54.9935 3.27428 54.9935C7.87265 54.9935 12.473 54.9517 17.0709 55.0197C42.4974 55.3955 67.911 55.9367 93.3475 55.9367C130.736 55.9367 168.118 57.0754 205.505 57.3778C243.233 57.6831 280.954 58.1458 318.683 58.2949C354.658 58.4371 462.583 58.7666 426.608 58.7666M2 48.7415C2.22284 50.1342 2.12763 51.5733 2.12763 52.9817V54.2935C2.12763 54.6535 1.93174 55.4615 2.3829 55.1231M434.039 52.6981C433.657 53.9889 433.784 55.3889 433.784 56.7256C433.784 57.2126 433.546 57.6763 433.529 58.158C433.509 58.6959 433.455 59.2219 433.656 58.314M433.529 59.335C432.385 59.5638 430.847 60.4779 429.955 61.1786C429.199 61.7726 427.759 62.2794 426.835 62.5259C426.193 62.6971 425.69 63.164 425.006 63.164C424.794 63.164 424.128 63.4193 424.211 63.4193M3.27634 55.2508C4.19103 55.819 5.13177 56.3667 5.96373 57.0518C6.30513 57.333 6.61703 57.7587 6.99189 57.9878C7.40944 58.243 7.86805 58.378 8.25405 58.6969C8.6697 59.0402 11.772 61.1777 11.9554 60.9943M13.323 61.9271C13.323 61.9271 31.322 63.0291 39.7468 63.0697C48.1717 63.1103 72.4372 63.2271 72.4372 63.2271C117.773 63.4454 163.171 64.3735 208.502 63.7695C236.737 63.3932 264.967 63.6465 293.205 63.7824C303.048 63.8298 312.874 63.3694 322.711 63.4168C335.548 63.4786 348.504 64.0593 361.325 63.3489C374.567 62.6152 387.946 63.2232 401.209 63.2871C408.081 63.3202 414.928 62.8454 421.802 62.8785C422.894 62.8838 423.652 62.9891 424.569 62.3841" stroke="#ACA04E" stroke-width="2.25709" stroke-linecap="round" stroke-linejoin="round"/>
</svg>
