<svg width="436" height="76" viewBox="0 0 436 76" fill="none" xmlns="http://www.w3.org/2000/svg">
<path d="M116.309 48.8376L110.95 16.2744C110.768 15.1645 109.175 15.1547 108.979 16.2623L103.208 48.8255C103.1 49.4381 103.571 50 104.193 50H115.322C115.939 50 116.409 49.4465 116.309 48.8376Z" fill="#CEBF55"/>
<path d="M178.393 50.4029L175.437 20.1018C175.32 18.9052 173.579 18.8947 173.447 20.0898L170.122 50.3909C170.057 50.9828 170.52 51.5 171.116 51.5H177.398C177.988 51.5 178.45 50.9908 178.393 50.4029Z" fill="#CEBF55"/>
<path d="M236 51.5C233.223 51.5 232.535 40.7356 232.596 30.4166C232.604 29.1863 230.554 28.9244 230.285 30.125L225.773 50.2815C225.633 50.9065 226.106 51.5 226.747 51.5H236Z" fill="#CEBF55"/>
<path d="M294.062 52.5665L295.715 27.7816C295.796 26.5591 294.03 26.2904 293.744 27.4817L287.796 52.2666C287.645 52.8955 288.122 53.5 288.768 53.5H293.064C293.591 53.5 294.027 53.0918 294.062 52.5665Z" fill="#CEBF55"/>
<path d="M357 50C352.6 48.8 355.167 28.1667 357 18L350.042 41.3603C350.014 41.4529 350 41.5491 350 41.6458V52.5C350 53.0523 350.448 53.5 351 53.5H356.824C356.94 53.5 357.056 53.4802 357.165 53.4382C358.979 52.7368 361.27 51.1644 357 50Z" fill="#CEBF55"/>
<path d="M411 52.5V27C411 26.4477 410.552 26 410 26H409.839C409.354 26 408.939 26.3484 408.854 26.8262L406.015 42.9138C406.005 42.9711 406 43.0293 406 43.0876V52.5C406 53.0523 406.448 53.5 407 53.5H410C410.552 53.5 411 53.0523 411 52.5Z" fill="#CEBF55"/>
<path d="M425.5 64L431.195 74.5135C431.557 75.1822 431.07 75.9944 430.309 75.9898L19.0996 73.5036C18.7305 73.5014 18.3926 73.296 18.2207 72.9694L13.5 64L6.8227 58.8065C6.06878 58.2202 6.4874 57.0116 7.44249 57.0172L428.831 59.4815C429.809 59.4872 430.198 60.7473 429.395 61.3036L425.5 64Z" fill="#CEBF55"/>
<path d="M373.68 4.97723C374.268 4.54455 375.074 3.86082 375.851 3.86082C376.191 3.86082 377.165 3.49251 377.401 3.57137C377.674 3.66241 378.242 4.12667 378.518 4.32599C379.313 4.90044 379.988 4.93365 380.895 5.30803C383.288 6.29551 385.691 7.15392 388.193 7.913C389.583 8.33473 390.928 8.82556 392.349 9.15347C393.475 9.41349 394.657 9.69544 395.636 10.3319C396.673 11.0063 398.036 10.8844 399.099 11.5724C399.741 11.9881 400.641 11.976 401.363 12.1926C402.745 12.6073 404.262 12.9643 405.684 13.2057C407.189 13.4612 408.678 13.7591 410.149 14.0533C411.276 14.2786 412.358 14.3171 413.478 14.4771C413.897 14.5369 411.398 21.8624 410.987 22.6849C410.611 23.4354 410.487 24.301 410.108 25.0728C409.486 26.3391 409.041 27.6504 408.557 28.9699C408.158 30.0601 407.619 30.8992 407.317 32.0607C407.089 32.937 406.752 33.7769 406.521 34.6554C405.659 37.9296 405.312 41.3561 405.312 44.7342C405.312 46.2729 405.125 47.7908 405.125 49.3342C405.125 49.7718 405.62 51.0803 405.125 50.7504" stroke="#ACA04E" stroke-width="2.25709" stroke-linecap="round" stroke-linejoin="round"/>
<path d="M374.049 4.97705C373.7 6.14097 373.305 7.06744 373.305 8.28496C373.305 9.51765 373.147 10.562 372.747 11.7376C372.298 13.0575 372.381 14.3899 372.147 15.7484C371.846 17.5018 371.072 19.1872 371.072 20.9894C371.072 23.5243 370.22 26.0795 369.77 28.5562C369.216 31.602 368.341 34.6017 367.764 37.6426C367.423 39.445 367.279 41.1181 366.607 42.8733C366.047 44.3338 365.312 46.1403 365.128 47.7008C365.037 48.4742 364.932 49.3231 364.932 50.099C364.932 51.1222 364.363 52.7933 365.118 50.3781" stroke="#ACA04E" stroke-width="2.25709" stroke-linecap="round" stroke-linejoin="round"/>
<path d="M377.773 4.23267C377.389 6.79549 376.968 9.42533 376.471 11.9649C376.234 13.1749 375.94 14.3668 375.727 15.5829C375.435 17.2408 374.645 18.8497 374.445 20.5034C373.855 25.3709 372.294 30.0331 371.406 34.8515C370.607 39.1841 370.066 43.5981 368.852 47.8454C368.494 49.0981 368.098 52.9834 368.098 51.6805" stroke="#ACA04E" stroke-width="2.25709" stroke-linecap="round" stroke-linejoin="round"/>
<path d="M322.51 4.60522C322.25 7.25625 321.632 10.0459 320.918 12.6166C320.175 15.292 319.55 17.997 318.695 20.6279C317.932 22.976 317.352 25.4394 316.7 27.8226C316.097 30.0272 315.813 32.2709 315.253 34.4798C314.232 38.5071 312.494 42.5005 311.718 46.5743C311.499 47.723 310.919 48.7654 310.643 49.9029C310.496 50.5066 310.043 52.8025 310.043 50.9366" stroke="#ACA04E" stroke-width="2.25709" stroke-linecap="round" stroke-linejoin="round"/>
<path d="M320.279 4.97705C319.327 7.14873 319.025 9.38658 318.305 11.6549C317.163 15.2496 316.575 18.974 315.896 22.6744C315.401 25.3752 314.339 27.9981 313.581 30.634C312.96 32.7886 311.824 34.8173 311.306 37.0017C310.407 40.7976 309.463 44.565 308.464 48.3417C308.196 49.3544 307.915 50.361 307.585 51.3498C307.22 52.4436 307.181 53.5149 307.44 51.3084" stroke="#ACA04E" stroke-width="2.25709" stroke-linecap="round" stroke-linejoin="round"/>
<path d="M319.906 5.72135C321.461 3.82149 322.831 3.87266 324.93 4.791C325.852 5.19429 326.697 5.72775 327.618 6.13483C328.523 6.53521 329.337 7.28838 330.264 7.58204C332.751 8.36968 335.357 9.11791 337.769 10.125C339.559 10.8722 341.273 11.6102 343.165 12.1304C344.477 12.4911 345.88 12.3048 347.155 12.8023C348.465 13.3134 349.815 13.4191 351.145 13.8257C352.035 14.0977 352.722 14.4078 353.668 14.508C354.31 14.576 355.033 14.5797 355.632 14.8388C356.225 15.0952 357.384 15.2121 357.864 15.6657C358.922 16.6644 357.199 19.2952 356.872 20.2761C356.108 22.5673 355.796 24.873 355.166 27.1814C354.549 29.447 353.57 31.5888 352.841 33.8179C352.52 34.7984 352.116 35.743 351.766 36.7123C351.528 37.3694 351.583 38.0442 351.352 38.6971C351.058 39.5274 351.079 40.3927 350.887 41.24C350.679 42.1546 350.319 43.0233 350.153 43.9484C349.962 45.0096 349.863 46.1587 349.863 47.2356C349.863 48.1087 349.897 48.9889 349.863 49.8613C349.851 50.1813 349.677 50.4266 349.677 50.7503C349.677 51.2881 349.875 51.7795 349.305 51.4945" stroke="#ACA04E" stroke-width="2.25709" stroke-linecap="round" stroke-linejoin="round"/>
<path d="M376.102 30.2822C377.19 30.6935 378.294 30.937 379.347 31.44C380.729 32.0993 382.24 32.1813 383.627 32.7942C385.11 33.4496 386.675 33.7952 388.186 34.3654C389.287 34.7809 389.892 35.4862 391.153 35.6369C392.747 35.8276 393.91 36.3263 395.349 36.9807C396.104 37.3236 396.935 37.0601 397.686 37.4356C398.649 37.9173 401.926 38.0972 400.849 38.0972" stroke="#ACA04E" stroke-width="2.25709" stroke-linecap="round" stroke-linejoin="round"/>
<path d="M256.453 4.23296C257.764 4.38141 258.673 3.51044 259.802 4.23296C261.525 5.33518 264.271 5.48522 266.232 5.86624C269.094 6.42212 272.013 7.08685 274.75 8.09908C276.148 8.61623 277.662 8.63852 279.102 8.99842C280.603 9.37366 282.137 9.91169 283.619 10.3733C287.081 11.4516 290.848 12.234 294.494 12.234C295.03 12.234 296.492 12.2729 296.458 12.9782C296.394 14.3344 296.201 15.5841 295.714 16.8444C295.07 18.5109 294.671 20.4615 294.225 22.199C293.658 24.4075 293.21 26.6643 292.737 28.8976C292.148 31.6769 290.876 34.2045 290.876 37.1053C290.876 40.086 290.345 43.0147 289.904 45.954C289.708 47.2617 289.412 48.5724 289.16 49.8614C289.055 50.3977 288.628 52.2234 288.085 51.6808" stroke="#ACA04E" stroke-width="2.25709" stroke-linecap="round" stroke-linejoin="round"/>
<path d="M256.27 4.79094C257.098 0.414163 254.369 13.5161 253.945 17.9502C253.624 21.3005 253.117 24.7511 252.177 27.9876C251.466 30.4343 251.27 32.9998 250.616 35.4718C249.767 38.6782 248.882 41.9323 248.414 45.2094C248.211 46.632 248.169 48.0757 247.711 49.4477C247.505 50.0648 247.228 50.6772 247.07 51.3084C246.601 53.1859 247.971 50.0542 248.083 49.8198" stroke="#ACA04E" stroke-width="2.25709" stroke-linecap="round" stroke-linejoin="round"/>
<path d="M259.063 4.60522C257.654 10.9451 256.633 17.3661 255.238 23.7084C254.306 27.9425 254.099 32.5123 252.468 36.5679C251.596 38.7332 251.364 41.1449 250.876 43.4318C250.558 44.9175 250.558 46.7391 249.945 48.1456C249.795 48.4893 248.953 52.053 249.015 52.053" stroke="#ACA04E" stroke-width="2.25709" stroke-linecap="round" stroke-linejoin="round"/>
<path d="M196.17 4.60522C195.302 5.47346 194.399 6.18683 194.31 7.49964C194.141 9.97542 193.265 12.4385 192.749 14.8494C191.532 20.5269 190.204 26.1559 188.841 31.8231C188.281 34.1542 188.239 36.5895 187.59 38.9041C186.96 41.1562 186.409 43.4108 185.936 45.6853C185.66 47.0146 185.537 48.2959 185.368 49.6445C185.277 50.3702 184.927 51.0624 184.83 51.7843C184.773 52.2165 184.511 52.8267 184.82 52.053" stroke="#ACA04E" stroke-width="2.25709" stroke-linecap="round" stroke-linejoin="round"/>
<path d="M195.797 5.34905C195.797 5.03893 195.797 4.72882 195.797 4.4187" stroke="#ACA04E" stroke-width="2.25709" stroke-linecap="round" stroke-linejoin="round"/>
<path d="M195.984 4.23267C196.713 4.47058 197.182 4.67405 197.804 5.08032C198.803 5.73368 200.207 5.65522 201.298 6.1864C202.851 6.94318 204.781 6.62037 206.456 6.76528C207.607 6.86487 208.495 7.35871 209.629 7.4372C210.752 7.51488 212.216 7.45272 213.248 7.99541C214.176 8.48403 215.747 8.29902 216.783 8.51227C218.858 8.93942 220.896 9.36527 222.923 9.91813C223.73 10.1381 224.567 10.0028 225.383 10.2696C226.398 10.6014 227.247 11.2247 228.34 11.293C229.091 11.3399 229.691 11.6 230.407 11.6755C231.018 11.7397 232.495 12.13 232.888 12.5231C233.393 13.0277 232.977 14.9347 232.868 15.5209C232.479 17.5914 232.315 19.6093 231.71 21.6405C231.18 23.4183 230.806 25.3237 230.552 27.1606C230.337 28.7149 230.028 30.1312 229.591 31.6366C229.255 32.7938 229.278 34.0695 228.919 35.2236C227.993 38.1965 227.452 41.1867 226.913 44.2584C226.46 46.8439 226.258 49.5271 225.569 52.0526" stroke="#ACA04E" stroke-width="2.25709" stroke-linecap="round" stroke-linejoin="round"/>
<path d="M196.354 6.46533C196.202 7.77884 196.148 9.10712 195.941 10.4141C195.773 11.4729 195.126 12.3648 195.052 13.4533C194.942 15.0774 194.348 16.411 193.946 17.919C193.478 19.6752 193.1 21.4285 192.809 23.222C192.505 25.0965 192.052 26.9389 191.703 28.8041C191.324 30.822 190.487 32.7305 190.255 34.7686C190.048 36.596 189.92 38.7047 189.428 40.4748C188.936 42.2486 188.526 44.0727 188.074 45.8811C187.788 47.0262 187.833 48.2577 187.33 49.3648C187.145 49.7721 186.488 51.874 186.865 51.3082" stroke="#ACA04E" stroke-width="2.25709" stroke-linecap="round" stroke-linejoin="round"/>
<path d="M229.661 36.9813C229.603 36.5956 229.541 35.9143 229.351 35.5341C228.846 34.5249 229.329 35.7861 228.73 35.1206" stroke="#ACA04E" stroke-width="2.25709" stroke-linecap="round" stroke-linejoin="round"/>
<path d="M135.882 4.23267C135.509 4.71072 134.85 4.99981 134.776 5.62819C134.714 6.15709 134.659 6.91893 134.807 7.4372C135.225 8.90084 135.086 10.9903 134.941 12.5128C134.501 17.1366 133.483 21.6446 133.081 26.2716C132.963 27.6262 132.452 28.9419 132.243 30.2824C131.961 32.0975 131.995 33.8688 131.53 35.6785C130.965 37.8778 130.871 40.1256 130.527 42.3563C130.392 43.2388 130.201 44.1303 130.011 45.0026C129.803 45.9504 129.87 46.9266 129.649 47.8557C129.535 48.3336 129.643 48.838 129.514 49.3029C129.374 49.8109 129.184 51.1647 129.184 49.8198" stroke="#ACA04E" stroke-width="2.25709" stroke-linecap="round" stroke-linejoin="round"/>
<path d="M136.995 4.97705C136.713 6.80566 136.942 8.65485 136.623 10.4764C136.43 11.5764 136.25 12.6953 136.25 13.8154C136.25 14.9137 135.813 15.9816 135.692 17.0716C135.398 19.7202 134.727 22.3343 134.586 25.0106C134.539 25.8968 134.512 26.7702 134.431 27.6569C134.314 28.949 133.806 30.1288 133.645 31.4196C132.867 37.6889 130.002 56.4235 131.04 50.192" stroke="#ACA04E" stroke-width="2.25709" stroke-linecap="round" stroke-linejoin="round"/>
<path d="M135.695 4.41914C136.718 3.7157 138.558 5.20932 139.758 5.59758C141.916 6.29579 144.141 6.29698 146.384 6.50726C148.65 6.71966 150.908 6.68987 153.176 6.93108C156.337 7.26742 159.492 7.48822 162.675 7.57199C164.97 7.63236 167.218 7.95447 169.519 7.95447C170.238 7.95447 172.837 7.65283 173.426 8.32661C173.774 8.72406 173.911 8.67623 174.119 9.25696C174.565 10.5053 174.153 12.0578 173.757 13.2471C172.927 15.737 172.723 18.7683 172.723 21.3722C172.723 23.014 172.37 24.6789 172.206 26.3134C171.977 28.6101 172.135 30.8387 171.793 33.1359C171.174 37.2829 171.209 41.5023 170.583 45.6336C170.374 47.0162 170.324 48.445 170.16 49.8409C170.089 50.4385 170.159 51.7171 169.56 51.867" stroke="#ACA04E" stroke-width="2.25709" stroke-linecap="round" stroke-linejoin="round"/>
<path d="M69.0856 2C68.9831 2.02146 67.3076 2.38918 67.3076 2.55821C67.3076 2.56686 67.5739 2.8986 67.5867 3.03372C67.616 3.34079 67.5971 3.65565 67.5971 3.96407C67.5971 6.23346 67.5971 8.49322 67.5971 10.766C67.5971 12.2527 67.272 13.6714 67.0389 15.1283C66.857 16.2647 66.316 17.383 66.2946 18.5395C66.2485 21.03 65.8657 23.4585 65.509 25.9203C65.157 28.349 64.5988 30.7925 64.2478 33.2494C63.892 35.7401 63.6774 38.2661 63.1314 40.7232C62.6506 42.8868 62.2691 45.0534 61.6842 47.1736C61.5002 47.8407 61.3599 48.5535 61.188 49.2411C61.0036 49.9787 60.7779 51.4742 61.0846 49.6339" stroke="#ACA04E" stroke-width="2.25709" stroke-linecap="round" stroke-linejoin="round"/>
<path d="M69.832 2.18579C71.2626 2.40891 72.6667 2.69502 74.1116 2.744C75.2482 2.78253 76.2419 3.33099 77.3368 3.44693C78.4878 3.5688 79.6404 3.70155 80.7895 3.81907C82.5345 3.99754 84.236 3.71521 85.9271 4.31526C87.1637 4.75405 88.6725 4.80612 89.9689 5.0492C91.6223 5.3592 93.3339 5.06434 94.9928 4.98718C96.2413 4.9291 97.419 5.47827 98.6729 5.52471C99.6211 5.55983 100.734 5.76493 101.671 5.67977C102.891 5.56883 104.166 5.40735 105.392 5.5764C106.606 5.74381 106.319 5.88512 106.302 6.98226C106.284 8.08704 106.116 9.17838 106.116 10.2798C106.116 13.627 105.93 16.937 105.93 20.2759C105.93 23.1816 106.227 25.9995 105.837 28.8868C105.492 31.4365 105.176 33.8668 104.358 36.3193C103.82 37.9337 103.672 39.6187 102.952 41.1778C102.706 41.7121 102.709 42.2771 102.394 42.7904C101.996 43.4399 101.687 44.1427 101.464 44.8681C101.237 45.6069 100.192 49.8919 99.4171 49.6336" stroke="#ACA04E" stroke-width="2.25709" stroke-linecap="round" stroke-linejoin="round"/>
<path d="M106.859 7.02417C107.226 9.14587 107.231 11.1096 107.231 13.2472C107.231 15.1754 107.417 17.066 107.417 18.9947C107.417 21.0194 107.722 23.3119 107.376 25.3004C107.205 26.2841 107.142 27.3127 107.055 28.3085C106.975 29.2323 106.6 30.1029 106.497 31.0272C106.078 34.8 104.846 38.4469 103.882 42.0983C103.42 43.8456 102.76 45.4316 102.114 47.0809C101.892 47.6488 101.71 48.3417 101.422 48.8899C100.955 49.7759 100.809 49.6086 100.719 48.7038" stroke="#ACA04E" stroke-width="2.25709" stroke-linecap="round" stroke-linejoin="round"/>
<path d="M108.712 9.0708C108.712 14.1095 108.201 19.0244 107.596 24.0184C107.487 24.9155 107.41 25.7072 107.41 26.6234C107.41 27.5567 106.99 28.5115 106.851 29.4454C106.72 30.3307 106.317 31.1688 106.293 32.0608C106.275 32.7205 106.272 33.3123 106.148 33.9628C105.901 35.2618 105.744 36.5362 105.404 37.8289C104.904 39.7297 104.983 41.7415 104.536 43.6591C104.302 44.6625 104.226 45.7081 104.019 46.7189C103.915 47.2273 104.028 47.9811 103.781 48.4246C103.414 49.0859 103.578 50.5454 102.758 50.7504" stroke="#ACA04E" stroke-width="2.25709" stroke-linecap="round" stroke-linejoin="round"/>
<path d="M99.7908 48.8894C99.5559 49.3686 98.9495 51.1668 98.4883 50.9362" stroke="#ACA04E" stroke-width="2.25709" stroke-linecap="round" stroke-linejoin="round"/>
<path d="M78.013 42.9354C78.013 41.6009 77.9749 40.2588 78.013 38.9245C78.019 38.7171 78.1969 38.2285 78.3852 38.511C78.9383 39.3407 78.8917 40.5892 78.9847 41.5295C79.0221 41.9073 79.1157 44.7891 79.3155 43.0904C79.5056 41.4747 80.3777 39.955 81.1556 38.5937C81.5679 37.8721 81.0325 40.253 80.9075 41.0747C80.857 41.4061 80.5693 44.1735 80.9902 43.1214" stroke="#ACA04E" stroke-width="2.25709" stroke-linecap="round" stroke-linejoin="round"/>
<path d="M83.0394 38.4697C82.9554 38.9924 82.0352 43.0381 83.3701 42.9354C84.5422 42.8452 84.4937 39.2482 85.0861 38.6558" stroke="#ACA04E" stroke-width="2.25709" stroke-linecap="round" stroke-linejoin="round"/>
<path d="M88.4345 39.2136C88.2379 40.6394 88.0188 42.6307 87.2251 43.8654C86.9533 44.2881 86.6427 45.088 86.0156 44.9404C85.2347 44.7567 85.1968 44.3309 85.4574 43.6793" stroke="#ACA04E" stroke-width="2.25709" stroke-linecap="round" stroke-linejoin="round"/>
<path d="M90.4822 39.7722C90.0764 41.3716 89.6985 43.0537 89.1797 44.61" stroke="#ACA04E" stroke-width="2.25709" stroke-linecap="round" stroke-linejoin="round"/>
<path d="M7.04858 49.5935C6.76656 49.6248 0.41805 50.0651 3.27428 50.0651C7.87265 50.0651 12.473 50.0234 17.0709 50.0913C42.4974 50.4672 67.911 51.0084 93.3475 51.0084C130.736 51.0084 168.118 52.1471 205.505 52.4495C243.233 52.7548 280.954 53.2175 318.683 53.3666C354.658 53.5088 462.583 53.8382 426.608 53.8382M7.04858 55.5133C6.76656 55.5446 0.41805 55.9849 3.27428 55.9849C7.87265 55.9849 12.473 55.9431 17.0709 56.0111C42.4974 56.387 67.911 56.9282 93.3475 56.9282C130.736 56.9282 168.118 58.0668 205.505 58.3693C243.233 58.6745 280.954 59.1373 318.683 59.2864C354.658 59.4285 462.583 59.758 426.608 59.758M2 49.7329C2.22284 51.1257 2.12763 52.5648 2.12763 53.9732V55.285C2.12763 55.6449 1.93174 56.453 2.3829 56.1146M434.039 53.6895C433.657 54.9804 433.784 56.3803 433.784 57.7171C433.784 58.2041 433.546 58.6678 433.529 59.1494C433.509 59.6873 433.455 60.2134 433.656 59.3054M433.529 60.3265C432.385 60.5552 430.847 61.4694 429.955 62.1701C429.199 62.7641 427.759 63.2708 426.835 63.5173C426.193 63.6886 425.69 64.1555 425.006 64.1555C424.794 64.1555 424.128 64.4108 424.211 64.4108M3.27634 56.2422C4.19103 56.8104 5.13177 57.3581 5.96373 58.0433C6.30513 58.3244 6.61703 58.7502 6.99189 58.9792C7.40944 59.2344 7.86805 59.3694 8.25405 59.6883C8.6697 60.0317 11.772 62.1691 11.9554 61.9857M13.323 62.9185C13.323 62.9185 31.322 64.0206 39.7468 64.0612C48.1717 64.1017 72.4372 64.2186 72.4372 64.2186C117.773 64.4369 163.171 65.3649 208.502 64.7609C236.737 64.3847 264.967 64.6379 293.205 64.7739C303.048 64.8213 312.874 64.3609 322.711 64.4083C335.548 64.4701 348.504 65.0508 361.325 64.3403C374.567 63.6066 387.946 64.2147 401.209 64.2785C408.081 64.3116 414.928 63.8369 421.802 63.87C422.894 63.8752 423.652 63.9805 424.569 63.3756" stroke="#ACA04E" stroke-width="2.25709" stroke-linecap="round" stroke-linejoin="round"/>
</svg>
